<svg class="thumb" width="1000" height="100" viewBox="0,0,600,600">
  <defs></defs>
  <g transform="matrix(0.4374,0,0,0.4374,-34.0904,221.7022)">
    <g transform="matrix(0,0.4671,-0.5451,0,438.1766,198.05)">
      <svg width="261" height="512" viewBox="119,-5.242,261,512">
        <defs>
          <linearGradient x1="0" y1="0.5" x2="1" y2="0.5" id="linearGradientSk7ewrgut4">
            <stop offset="0%" stop-color="#43d982"></stop>
            <stop offset="100%" stop-color="#43d982"></stop>
          </linearGradient>
        </defs>
        <g></g>
        <g></g>
        <g></g>
        <g>
          <path d="M124-0.242c138.623,0,251,112.376,251,251c0,138.623-112.377,251-251,251" stroke="none" fill="url('#linearGradientSk7ewrgut4')" style=""></path>
        </g>
      </svg>
    </g>
    <g transform="matrix(2.4092,0,0,2.4092,143.2379,175.4971)">
      <svg width="129.60000000000002" height="66.39999999999999" viewBox="15.200000000000003,92.2,129.60000000000002,66.39999999999999">
        <defs>
          <linearGradient x1="0" y1="0.5" x2="1" y2="0.5" id="linearGradientSk7ewrguta">
            <stop offset="0%" stop-color="#3d4954"></stop>
            <stop offset="100%" stop-color="#3d4954"></stop>
          </linearGradient>
        </defs>
        <g></g>
        <g></g>
        <g></g>
        <g>
          <path d="M136.4,97.2h-22.1c0,0,0,0,0,0H23.6c-1.9,0-3.4,1.5-3.4,3.4c0,1.9,1.5,3.4,3.4,3.4h15.7L28,120.2c-1.1,1.5-0.7,3.6,0.9,4.7   c0.6,0.4,1.3,0.6,1.9,0.6c1.1,0,2.1-0.5,2.8-1.5l13.9-20.1h4.4l-13.7,29.7c-0.8,1.7,0,3.7,1.7,4.5c0.5,0.2,0.9,0.3,1.4,0.3   c1.3,0,2.5-0.7,3.1-2l15-32.5h5l-9.5,41.1c-0.4,1.8,0.7,3.6,2.5,4.1c0.3,0.1,0.5,0.1,0.8,0.1c1.5,0,2.9-1.1,3.3-2.6l9.8-42.6h5.3   v46.2c0,1.9,1.5,3.4,3.4,3.4c1.9,0,3.4-1.5,3.4-3.4v-46.2h5.3l9.8,42.6c0.4,1.6,1.8,2.6,3.3,2.6c0.3,0,0.5,0,0.8-0.1   c1.8-0.4,3-2.2,2.5-4.1l-9.5-41.1h5l15,32.5c0.6,1.2,1.8,2,3.1,2c0.5,0,1-0.1,1.4-0.3c1.7-0.8,2.4-2.8,1.7-4.5l-13.7-29.7h4.4   l13.9,20.1c0.7,1,1.7,1.5,2.8,1.5c0.7,0,1.3-0.2,1.9-0.6c1.5-1.1,1.9-3.2,0.9-4.7l-11.2-16.3h15.6c1.9,0,3.4-1.5,3.4-3.4   C139.8,98.7,138.2,97.2,136.4,97.2z" stroke="none" fill="url('#linearGradientSk7ewrguta')" style=""></path>
        </g>
      </svg>
    </g>
    <g transform="matrix(5.1801,0,0,5.1801,125.0973,5.4673)">
      <svg width="67" height="67" viewBox="6.5,6.5,67,67">
        <defs>
          <linearGradient x1="0" y1="0.5" x2="1" y2="0.5" id="linearGradientSk7ewrgutg">
            <stop offset="0%" stop-color="#3d4954"></stop>
            <stop offset="100%" stop-color="#3d4954"></stop>
          </linearGradient>
        </defs>
        <g></g>
        <g></g>
        <g></g>
        <g>
          <path d="M40,68.5c-15.7,0-28.5-12.8-28.5-28.5S24.3,11.5,40,11.5S68.5,24.3,68.5,40S55.7,68.5,40,68.5z M40,13.5   c-14.6,0-26.5,11.9-26.5,26.5S25.4,66.5,40,66.5S66.5,54.6,66.5,40S54.6,13.5,40,13.5z" stroke="none" fill="url('#linearGradientSk7ewrgutg')" style=""></path>
        </g>
      </svg>
    </g>
    <g transform="matrix(0.2421,0.2258,-0.2362,0.2533,261.985,196.1958)">
      <svg width="186.74200000000002" height="109.90257714714623" viewBox="-5,33.43268586601546,186.74200000000002,109.90257714714623">
        <defs>
          <linearGradient x1="0" y1="0.5" x2="1" y2="0.5" id="linearGradientSk7ewrgutm">
            <stop offset="0%" stop-color="#f2cb30"></stop>
            <stop offset="100%" stop-color="#f2cb30"></stop>
          </linearGradient>
        </defs>
        <g></g>
        <g></g>
        <g></g>
        <g>
          <path d="M88.372,38.521c0,0-49.688-4.452-88.372,49.863c38.685,54.314,88.372,49.863,88.372,49.863  s49.688,4.451,88.37-49.863C138.06,34.07,88.372,38.521,88.372,38.521z" stroke="none" fill="url('#linearGradientSk7ewrgutm')" style=""></path>
        </g>
      </svg>
    </g>
    <g transform="matrix(0.2536,-0.2128,0.2226,0.2653,286.9098,238.3316)">
      <svg width="186.74200000000002" height="109.90257714714623" viewBox="-5,33.43268586601546,186.74200000000002,109.90257714714623">
        <defs>
          <linearGradient x1="0" y1="0.5" x2="1" y2="0.5" id="linearGradientSk7ewrguts">
            <stop offset="0%" stop-color="#f2cb30"></stop>
            <stop offset="100%" stop-color="#f2cb30"></stop>
          </linearGradient>
        </defs>
        <g></g>
        <g></g>
        <g></g>
        <g>
          <path d="M88.372,38.521c0,0-49.688-4.452-88.372,49.863c38.685,54.314,88.372,49.863,88.372,49.863  s49.688,4.451,88.37-49.863C138.06,34.07,88.372,38.521,88.372,38.521z" stroke="none" fill="url('#linearGradientSk7ewrguts')" style=""></path>
        </g>
      </svg>
    </g>
    <g transform="matrix(0.2536,-0.2128,0.2226,0.2653,289.9098,188.3316)">
      <svg width="186.74200000000002" height="109.90257714714623" viewBox="-5,33.43268586601546,186.74200000000002,109.90257714714623">
        <defs>
          <linearGradient x1="0" y1="0.5" x2="1" y2="0.5" id="linearGradientSk7ewrguty">
            <stop offset="0%" stop-color="#f2cb30"></stop>
            <stop offset="100%" stop-color="#f2cb30"></stop>
          </linearGradient>
        </defs>
        <g></g>
        <g></g>
        <g></g>
        <g>
          <path d="M88.372,38.521c0,0-49.688-4.452-88.372,49.863c38.685,54.314,88.372,49.863,88.372,49.863  s49.688,4.451,88.37-49.863C138.06,34.07,88.372,38.521,88.372,38.521z" stroke="none" fill="url('#linearGradientSk7ewrguty')" style=""></path>
        </g>
      </svg>
    </g>
    <g transform="matrix(0.2421,0.2258,-0.2362,0.2533,264.985,148.1958)">
      <svg width="186.74200000000002" height="109.90257714714623" viewBox="-5,33.43268586601546,186.74200000000002,109.90257714714623">
        <defs>
          <linearGradient x1="0" y1="0.5" x2="1" y2="0.5" id="linearGradientSk7ewrgut14">
            <stop offset="0%" stop-color="#f2cb30"></stop>
            <stop offset="100%" stop-color="#f2cb30"></stop>
          </linearGradient>
        </defs>
        <g></g>
        <g></g>
        <g></g>
        <g>
          <path d="M88.372,38.521c0,0-49.688-4.452-88.372,49.863c38.685,54.314,88.372,49.863,88.372,49.863  s49.688,4.451,88.37-49.863C138.06,34.07,88.372,38.521,88.372,38.521z" stroke="none" fill="url('#linearGradientSk7ewrgut14')" style=""></path>
        </g>
      </svg>
    </g>
    <g transform="matrix(0.2536,-0.2128,0.2226,0.2653,289.9098,143.3316)">
      <svg width="186.74200000000002" height="109.90257714714623" viewBox="-5,33.43268586601546,186.74200000000002,109.90257714714623">
        <defs>
          <linearGradient x1="0" y1="0.5" x2="1" y2="0.5" id="linearGradientSk7ewrgut1a">
            <stop offset="0%" stop-color="#f2cb30"></stop>
            <stop offset="100%" stop-color="#f2cb30"></stop>
          </linearGradient>
        </defs>
        <g></g>
        <g></g>
        <g></g>
        <g>
          <path d="M88.372,38.521c0,0-49.688-4.452-88.372,49.863c38.685,54.314,88.372,49.863,88.372,49.863  s49.688,4.451,88.37-49.863C138.06,34.07,88.372,38.521,88.372,38.521z" stroke="none" fill="url('#linearGradientSk7ewrgut1a')" style=""></path>
        </g>
      </svg>
    </g>
    <g transform="matrix(0.2421,0.2258,-0.2362,0.2533,264.985,103.1958)">
      <svg width="186.74200000000002" height="109.90257714714623" viewBox="-5,33.43268586601546,186.74200000000002,109.90257714714623">
        <defs>
          <linearGradient x1="0" y1="0.5" x2="1" y2="0.5" id="linearGradientSk7ewrgut1g">
            <stop offset="0%" stop-color="#f2cb30"></stop>
            <stop offset="100%" stop-color="#f2cb30"></stop>
          </linearGradient>
        </defs>
        <g></g>
        <g></g>
        <g></g>
        <g>
          <path d="M88.372,38.521c0,0-49.688-4.452-88.372,49.863c38.685,54.314,88.372,49.863,88.372,49.863  s49.688,4.451,88.37-49.863C138.06,34.07,88.372,38.521,88.372,38.521z" stroke="none" fill="url('#linearGradientSk7ewrgut1g')" style=""></path>
        </g>
      </svg>
    </g>
    <g transform="matrix(0,-0.3311,0.3464,0,279.7537,125.7903)">
      <svg width="186.74200000000002" height="109.90257714714623" viewBox="-5,33.43268586601546,186.74200000000002,109.90257714714623">
        <defs>
          <linearGradient x1="0" y1="0.5" x2="1" y2="0.5" id="linearGradientSk7ewrgut1m">
            <stop offset="0%" stop-color="#f2cb30"></stop>
            <stop offset="100%" stop-color="#f2cb30"></stop>
          </linearGradient>
        </defs>
        <g></g>
        <g></g>
        <g></g>
        <g>
          <path d="M88.372,38.521c0,0-49.688-4.452-88.372,49.863c38.685,54.314,88.372,49.863,88.372,49.863  s49.688,4.451,88.37-49.863C138.06,34.07,88.372,38.521,88.372,38.521z" stroke="none" fill="url('#linearGradientSk7ewrgut1m')" style=""></path>
        </g>
      </svg>
    </g>
    <g transform="matrix(3.2539,0,0,3.2539,225.417,34.3201)">
      <svg width="45.99200000000001" height="92.156" viewBox="22.356999999999985,-3.156000000000005,45.99200000000001,92.156">
        <defs>
          <linearGradient x1="0" y1="0.5" x2="1" y2="0.5" id="linearGradientSk7ewrgut1s">
            <stop offset="0%" stop-color="#3d4954"></stop>
            <stop offset="100%" stop-color="#3d4954"></stop>
          </linearGradient>
        </defs>
        <g></g>
        <g></g>
        <g></g>
        <g>
          <path d="M63.349,33.687l-3.459,0.048c3.208-4.126,3.39-9.285,3.399-9.914l0.06-4.371l-4.371,0.06  c-0.477,0.007-3.566,0.107-6.831,1.558c0.57-1.495,0.973-3.204,0.973-5.055c0-6.011-4.236-10.539-4.719-11.036l-3.048-3.133  l-3.048,3.133c-0.483,0.497-4.719,5.025-4.719,11.036c0,1.851,0.403,3.56,0.973,5.055c-3.265-1.45-6.354-1.551-6.831-1.558  l-4.371-0.06l0.06,4.371c0.009,0.629,0.19,5.787,3.399,9.914l-3.459-0.048l0.06,4.371c0.009,0.629,0.19,5.787,3.399,9.914  l-3.459-0.048l0.06,4.371c0.01,0.693,0.216,6.89,4.466,11.141C36.1,67.649,42.222,67.887,43,67.901V84h4V67.956v0.005v-0.056  l0.483-0.004c0.693-0.01,6.989-0.216,11.24-4.467c4.25-4.25,4.506-10.448,4.516-11.141l0.085-4.371l-3.447,0.048  c3.208-4.126,3.396-9.285,3.405-9.914L63.349,33.687z M43,48.375v1.036c-0.646-0.024-5.186-0.296-8.108-3.219  c-3.152-3.152-3.221-8.193-3.221-8.193s5.041,0.07,8.193,3.221C42.134,43.492,42.802,46.735,43,48.375z M47.622,49.413  c0,0,0.07-5.041,3.222-8.193s8.193-3.221,8.193-3.221s-0.07,5.041-3.222,8.193C52.663,49.344,47.622,49.413,47.622,49.413z   M59.037,23.763c0,0-0.07,5.041-3.222,8.193c-3.152,3.152-8.193,3.222-8.193,3.222s0.07-5.041,3.222-8.193  S59.037,23.763,59.037,23.763z M45.354,7.943c0,0,3.515,3.614,3.515,8.071s-3.515,8.071-3.515,8.071s-3.515-3.614-3.515-8.071  S45.354,7.943,45.354,7.943z M39.863,26.984c2.813,2.813,3.17,7.119,3.215,8.016H43v0.174c-0.646-0.024-5.186-0.296-8.108-3.219  c-3.152-3.152-3.221-8.193-3.221-8.193S36.711,23.832,39.863,26.984z M34.892,60.428c-3.152-3.152-3.221-8.193-3.221-8.193  s5.041,0.07,8.193,3.222c2.271,2.271,2.939,5.514,3.137,7.154v1.036C42.354,63.623,37.814,63.351,34.892,60.428z M55.815,60.428  c-3.152,3.152-8.193,3.222-8.193,3.222s0.07-5.041,3.222-8.193c3.152-3.152,8.193-3.222,8.193-3.222S58.967,57.276,55.815,60.428z" stroke="none" fill="url('#linearGradientSk7ewrgut1s')" style=""></path>
        </g>
      </svg>
    </g>
    <g transform="matrix(5.3372,0,0,5.3372,119.8338,0.2038)">
      <svg width="67" height="67" viewBox="6.5,6.5,67,67">
        <defs>
          <linearGradient x1="0" y1="0.5" x2="1" y2="0.5" id="linearGradientSk7ewrgut1y">
            <stop offset="0%" stop-color="#3d4954"></stop>
            <stop offset="100%" stop-color="#3d4954"></stop>
          </linearGradient>
        </defs>
        <g></g>
        <g></g>
        <g></g>
        <g>
          <path d="M40,68.5c-15.7,0-28.5-12.8-28.5-28.5S24.3,11.5,40,11.5S68.5,24.3,68.5,40S55.7,68.5,40,68.5z M40,13.5   c-14.6,0-26.5,11.9-26.5,26.5S25.4,66.5,40,66.5S66.5,54.6,66.5,40S54.6,13.5,40,13.5z" stroke="none" fill="url('#linearGradientSk7ewrgut1y')" style=""></path>
        </g>
      </svg>
    </g>
    <g transform="matrix(1.2728,0,0,1.2728,462.8875,34.1694)">
      <svg width="218.017578125" height="185" style="overflow: visible;">
        <defs>
          <linearGradient x1="0" y1="0.5" x2="1" y2="0.5" id="linearGradientSk7ewrgut2a">
            <stop offset="0%" stop-color="#3d4954"></stop>
            <stop offset="100%" stop-color="#3d4954"></stop>
          </linearGradient>
        </defs>
        <g transform="matrix(1,0,0,1,0,93.75)">
          <path d="M 7.13 0L 7.13-83.4L 19.78-83.4Q 22.17-83.4  25.02-83.18Q 27.88-82.96  30.74-82.15Q 33.59-81.35  36.25-79.69Q 38.92-78.03  40.97-75.17Q 43.02-72.31  44.26-68.02Q 45.51-63.72  45.51-57.57L 45.51-57.57L 45.51-54.64Q 45.51-47.95  44.36-43.19Q 43.21-38.43  41.31-35.18Q 39.4-31.93  36.89-29.98Q 34.38-28.03  31.67-27.03Q 28.96-26.03  26.2-25.71Q 23.44-25.39  21-25.39L 21-25.39L 19.78-25.39L 19.78 0L 7.13 0ZM 19.78-34.67L 20.41-34.67Q 23.83-34.67  26.17-35.67Q 28.52-36.67  29.91-38.79Q 31.3-40.92  31.91-44.26Q 32.52-47.61  32.52-52.29L 32.52-52.29L 32.52-59.81Q 32.52-63.53  31.98-66.24Q 31.45-68.95  30.05-70.7Q 28.66-72.46  26.32-73.32Q 23.97-74.17  20.41-74.17L 20.41-74.17L 19.78-74.17L 19.78-34.67ZM 54.29921875 0L 54.29921875-88.82L 66.64921875-88.82L 66.64921875-73L 66.01921875-61.47Q 67.37921875-63.38  68.96921875-64.62Q 70.55921875-65.87  72.23921874999999-66.63Q 73.92921875-67.38  75.65921875000001-67.7Q 77.38921875-68.02  79.09921875-68.02L 79.09921875-68.02Q 85.00921875-68.02  88.20921874999999-63.89Q 91.40921875000001-59.77  91.40921875000001-51.51L 91.40921875000001-51.51L 91.40921875000001 0L 79.04921875 0L 79.04921875-51.07Q 79.04921875-55.52  77.68921875-57.25Q 76.31921875-58.98  73.67921875-58.98L 73.67921875-58.98Q 71.82921875-58.98  69.94921875-57.74Q 68.06921875-56.49  66.64921875-54.3L 66.64921875-54.3L 66.64921875 0L 54.29921875 0ZM 110.7915625-76.86L 110.7915625-76.86Q 107.3715625-76.86  105.3915625-78.91Q 103.4215625-80.96  103.4215625-84.91L 103.4215625-84.91Q 103.4215625-87.11  103.9315625-88.6Q 104.4415625-90.09  105.3915625-90.99Q 106.3515625-91.89  107.7115625-92.31Q 109.0815625-92.72  110.8415625-92.72L 110.8415625-92.72Q 114.5015625-92.72  116.4015625-90.87Q 118.31156250000001-89.01  118.31156250000001-84.91L 118.31156250000001-84.91Q 118.31156250000001-81.1  116.3815625-78.98Q 114.4515625-76.86  110.7915625-76.86ZM 104.3915625 0L 104.3915625-67.24L 116.7515625-67.24L 116.7515625 0L 104.3915625 0ZM 129.83101562499996 0L 129.83101562499996-88.82L 142.19101562499998-88.82L 142.19101562499998 0L 129.83101562499996 0ZM 155.27046874999996 0L 155.27046874999996-88.82L 167.63046874999998-88.82L 167.63046874999998 0L 155.27046874999996 0ZM 177.979921875 12.94L 177.979921875 12.94Q 180.759921875 13.33  183.109921875 12.77Q 185.449921875 12.21  187.129921875 10.64Q 188.819921875 9.08  189.819921875 6.52Q 190.819921875 3.96  190.969921875 0.39L 190.969921875 0.39L 175.049921875-67.24L 187.599921875-67.24L 194.679921875-30.03L 196.729921875-17.19L 197.119921875-17.19L 198.539921875-30.03L 204.24992187499998-67.24L 216.409921875-67.24L 202.24992187499998 2.49Q 201.319921875 7.32  199.879921875 10.94Q 198.439921875 14.55  196.309921875 16.94Q 194.189921875 19.34  191.259921875 20.53Q 188.329921875 21.73  184.419921875 21.73L 184.419921875 21.73Q 181.249921875 21.73  177.929921875 20.51L 177.929921875 20.51L 177.979921875 12.94Z" data-textpath="Philly" data-text-anchor="middle" data-font-size="100" data-letterspacing="0" data-side="left" data-offset="0.5" data-dx="0" data-dy="0" data-xmlspace="preserve" data-href="" data-font="Fjalla One" data-font-src="/Content/clientfonts/fjallaone.woff" data-font-scale="contain" transform="translate(0,0)" data-x="0" data-y="0" fill="url('#linearGradientSk7ewrgut2a')"></path>
        </g>
      </svg>
    </g>
    <g transform="matrix(1.3292,0,0,1.3292,462.7338,180.7451)">
      <svg width="694.23828125" height="185" style="overflow: visible;">
        <defs>
          <linearGradient x1="0" y1="0.5" x2="1" y2="0.5" id="linearGradientSk7ewrgut2d">
            <stop offset="0%" stop-color="#3d4954"></stop>
            <stop offset="100%" stop-color="#3d4954"></stop>
          </linearGradient>
        </defs>
        <g transform="matrix(1,0,0,1,0,93.75)">
          <path d="M 7.13 0L 7.13-83.4L 39.01-83.4L 39.01-73.44L 19.78-73.44L 19.78-48.49L 34.86-48.49L 34.86-38.53L 19.78-38.53L 19.78 0L 7.13 0ZM 55.962031250000024 0.73L 55.962031250000024 0.73Q 52.83203125000002 0.73  50.41203125000002-0.51Q 48.00203125000002-1.76  46.34203125000002-3.91Q 44.68203125000002-6.05  43.82203125000002-9.01Q 42.97203125000002-11.96  42.97203125000002-15.43L 42.97203125000002-15.43Q 42.97203125000002-19.58  43.992031250000025-22.8Q 45.02203125000002-26.03  47.00203125000002-28.61Q 48.97203125000002-31.2  51.90203125000002-33.33Q 54.83203125000002-35.45  58.69203125000002-37.35L 58.69203125000002-37.35Q 60.54203125000002-38.28  62.86203125000002-39.23Q 65.18203125000002-40.19  66.99203125000003-40.87L 66.99203125000003-40.87L 66.99203125000003-49.76Q 66.99203125000003-51.71  66.84203125000002-53.39Q 66.70203125000002-55.08  66.14203125000002-56.32Q 65.57203125000002-57.57  64.45203125000002-58.28Q 63.33203125000002-58.98  61.37203125000002-58.98L 61.37203125000002-58.98Q 60.06203125000002-58.98  58.81203125000002-58.5Q 57.57203125000002-58.01  56.61203125000002-56.84Q 55.66203125000002-55.66  55.102031250000024-53.71Q 54.54203125000002-51.76  54.54203125000002-48.88L 54.54203125000002-48.88L 54.54203125000002-45.95L 45.12203125000002-45.95Q 44.68203125000002-47.85  44.462031250000024-49.44Q 44.242031250000025-51.03  44.242031250000025-52.59L 44.242031250000025-52.59Q 44.242031250000025-56.35  45.532031250000024-59.23Q 46.82203125000002-62.11  49.142031250000024-64.06Q 51.462031250000024-66.02  54.69203125000002-67.02Q 57.91203125000002-68.02  61.772031250000026-68.02L 61.772031250000026-68.02Q 66.79203125000002-68.02  70.12203125000002-66.92Q 73.44203125000001-65.82  75.41203125000001-63.62Q 77.39203125000003-61.43  78.20203125000002-58.11Q 79.00203125000002-54.79  79.00203125000002-50.34L 79.00203125000002-50.34L 79.00203125000002 0L 69.82203125000002 0L 68.94203125000001-5.76Q 66.94203125000001-2.88  63.602031250000024-1.07Q 60.25203125000002 0.73  55.962031250000024 0.73ZM 61.42203125000002-8.79L 61.42203125000002-8.79Q 62.992031250000025-8.79  64.48203125000002-9.59Q 65.96203125000002-10.4  66.99203125000003-11.57L 66.99203125000003-11.57L 66.99203125000003-32.62Q 66.01203125000002-32.23  64.79203125000002-31.69Q 63.57203125000002-31.15  62.16203125000002-30.27L 62.16203125000002-30.27Q 60.84203125000002-29.44  59.57203125000002-28.27Q 58.30203125000002-27.1  57.30203125000002-25.49Q 56.30203125000002-23.88  55.69203125000002-21.85Q 55.08203125000002-19.82  55.08203125000002-17.33L 55.08203125000002-17.33Q 55.08203125000002-13.48  56.59203125000002-11.13Q 58.102031250000024-8.79  61.42203125000002-8.79ZM 91.79921875000002 0L 91.79921875000002-67.24L 100.82921875000002-67.24L 101.90921875000004-60.4Q 103.95921875000003-64.21  106.61921875000003-66.11Q 109.27921875000003-68.02  112.05921875000003-68.02L 112.05921875000003-68.02Q 117.37921875000004-68.02  119.91921875000003-64.75Q 122.45921875000002-61.47  122.45921875000002-54.93L 122.45921875000002-54.93Q 122.45921875000002-54.1  122.33921875000003-52.95Q 122.21921875000004-51.81  121.99921875000003-50.56Q 121.77921875000003-49.32  121.45921875000002-48.07Q 121.13921875000003-46.83  120.79921875000002-45.8L 120.79921875000002-45.8L 112.20921875000003-45.8L 112.20921875000003-52.05Q 112.20921875000003-54.1  111.93921875000002-55.42Q 111.66921875000003-56.74  111.22921875000003-57.54Q 110.78921875000003-58.35  110.20921875000003-58.67Q 109.61921875000003-58.98  108.93921875000002-58.98L 108.93921875000002-58.98Q 107.46921875000002-58.98  106.22921875000003-58.03Q 104.97921875000003-57.08  104.14921875000003-55.37L 104.14921875000003-55.37L 104.14921875000003 0L 91.79921875000002 0ZM 130.27578125000005 0L 130.27578125000005-67.24L 139.84578125000004-67.24L 140.91578125000007-60.06L 140.91578125000007-60.01Q 142.38578125000006-62.3  144.04578125000006-63.84Q 145.70578125000006-65.38  147.48578125000006-66.31Q 149.26578125000006-67.24  151.14578125000006-67.63Q 153.02578125000005-68.02  154.88578125000006-68.02L 154.88578125000006-68.02Q 158.83578125000005-68.02  161.57578125000006-66.11Q 164.30578125000005-64.21  165.72578125000007-60.4L 165.72578125000007-60.4Q 167.18578125000005-62.6  168.82578125000006-64.06Q 170.45578125000006-65.53  172.21578125000005-66.41Q 173.97578125000007-67.29  175.78578125000007-67.65Q 177.58578125000005-68.02  179.44578125000007-68.02L 179.44578125000007-68.02Q 185.30578125000005-68.02  188.50578125000004-63.89Q 191.69578125000004-59.77  191.69578125000004-51.51L 191.69578125000004-51.51L 191.69578125000004 0L 179.34578125000007 0L 179.34578125000007-51.07Q 179.34578125000007-53.27  179.00578125000004-54.79Q 178.66578125000007-56.3  177.97578125000007-57.23Q 177.29578125000006-58.15  176.21578125000005-58.57Q 175.14578125000006-58.98  173.63578125000006-58.98L 173.63578125000006-58.98Q 171.92578125000006-58.98  170.21578125000005-57.74Q 168.50578125000004-56.49  167.08578125000005-54.3L 167.08578125000005-54.3Q 167.13578125000006-53.86  167.13578125000006-53.42Q 167.13578125000006-52.98  167.13578125000006-52.54L 167.13578125000006-52.54L 167.13578125000006 0L 154.78578125000007 0L 154.78578125000007-51.07Q 154.78578125000007-53.27  154.44578125000007-54.79Q 154.10578125000006-56.3  153.41578125000007-57.23Q 152.73578125000006-58.15  151.65578125000005-58.57Q 150.58578125000005-58.98  149.07578125000006-58.98L 149.07578125000006-58.98Q 147.41578125000007-58.98  145.70578125000006-57.76Q 143.99578125000005-56.54  142.62578125000005-54.39L 142.62578125000005-54.39L 142.62578125000005 0L 130.27578125000005 0ZM 220.7045312500001 0.73L 220.7045312500001 0.73Q 216.3545312500001 0.73  213.0145312500001-0.88Q 209.6645312500001-2.49  207.37453125000008-5.91Q 205.0745312500001-9.33  203.90453125000008-14.67Q 202.7345312500001-20.02  202.7345312500001-27.54L 202.7345312500001-27.54L 202.7345312500001-40.23Q 202.7345312500001-46.63  203.68453125000008-51.2Q 204.6345312500001-55.76  206.1745312500001-58.86Q 207.71453125000008-61.96  209.74453125000008-63.77Q 211.7645312500001-65.58  213.9145312500001-66.53Q 216.06453125000007-67.48  218.18453125000008-67.75Q 220.31453125000007-68.02  222.11453125000008-68.02L 222.11453125000008-68.02Q 225.43453125000008-68.02  228.5145312500001-67.02Q 231.5945312500001-66.02  233.93453125000008-63.6Q 236.27453125000008-61.18  237.6745312500001-57.13Q 239.06453125000007-53.08  239.06453125000007-47.02L 239.06453125000007-47.02Q 239.06453125000007-44.97  238.94453125000007-42.87Q 238.81453125000007-40.77  238.62453125000008-38.75Q 238.4245312500001-36.72  238.11453125000008-34.81Q 237.7945312500001-32.91  237.4545312500001-31.3L 237.4545312500001-31.3L 215.1345312500001-31.3L 215.1345312500001-24.46Q 215.1345312500001-20.07  215.4745312500001-17.07Q 215.8245312500001-14.06  216.62453125000008-12.23Q 217.43453125000008-10.4  218.8245312500001-9.59Q 220.21453125000008-8.79  222.31453125000007-8.79L 222.31453125000007-8.79Q 223.43453125000008-8.79  224.5145312500001-9.25Q 225.58453125000008-9.72  226.39453125000009-10.79Q 227.1945312500001-11.87  227.68453125000008-13.65Q 228.1745312500001-15.43  228.1745312500001-18.07L 228.1745312500001-18.07L 228.1745312500001-20.17L 238.4745312500001-20.17L 238.4745312500001-17.58Q 238.4745312500001-8.01  233.9145312500001-3.64Q 229.34453125000007 0.73  220.7045312500001 0.73ZM 215.1345312500001-39.6L 227.5345312500001-39.6Q 227.58453125000008-40.14  227.6345312500001-41.04Q 227.68453125000008-41.94  227.71453125000008-42.92Q 227.7345312500001-43.9  227.7345312500001-44.85Q 227.7345312500001-45.8  227.7345312500001-46.48L 227.7345312500001-46.48Q 227.7345312500001-53.13  226.1745312500001-56.05Q 224.6045312500001-58.98  221.5345312500001-58.98L 221.5345312500001-58.98Q 219.9245312500001-58.98  218.7045312500001-58.23Q 217.4845312500001-57.47  216.6945312500001-55.69Q 215.9145312500001-53.91  215.52453125000008-50.98Q 215.1345312500001-48.05  215.1345312500001-43.7L 215.1345312500001-43.7L 215.1345312500001-39.6ZM 249.5140625000001 0L 249.5140625000001-67.24L 258.5440625000001-67.24L 259.6240625000001-60.4Q 261.6740625000001-64.21  264.33406250000013-66.11Q 266.9940625000001-68.02  269.7740625000001-68.02L 269.7740625000001-68.02Q 275.0940625000001-68.02  277.63406250000014-64.75Q 280.1740625000001-61.47  280.1740625000001-54.93L 280.1740625000001-54.93Q 280.1740625000001-54.1  280.0540625000001-52.95Q 279.9340625000001-51.81  279.7140625000001-50.56Q 279.4940625000001-49.32  279.1740625000001-48.07Q 278.8540625000001-46.83  278.51406250000014-45.8L 278.51406250000014-45.8L 269.9240625000001-45.8L 269.9240625000001-52.05Q 269.9240625000001-54.1  269.6540625000001-55.42Q 269.38406250000014-56.74  268.9440625000001-57.54Q 268.5040625000001-58.35  267.9240625000001-58.67Q 267.33406250000013-58.98  266.6540625000001-58.98L 266.6540625000001-58.98Q 265.1840625000001-58.98  263.9440625000001-58.03Q 262.6940625000001-57.08  261.8640625000001-55.37L 261.8640625000001-55.37L 261.8640625000001 0L 249.5140625000001 0ZM 292.9206250000001-57.62L 291.7006250000001-91.6L 303.86062500000014-91.6L 302.8306250000001-57.62L 292.9206250000001-57.62ZM 317.6260156250001-14.06L 317.6260156250001-14.06Q 317.6260156250001-16.26  318.0460156250001-18.31Q 318.45601562500013-20.36  318.8460156250001-21.58L 318.8460156250001-21.58L 327.5360156250001-21.58Q 327.5360156250001-17.92  327.9060156250001-15.45Q 328.2760156250001-12.99  329.1060156250001-11.52Q 329.9360156250001-10.06  331.32601562500014-9.42Q 332.7160156250001-8.79  334.7160156250001-8.79L 334.7160156250001-8.79Q 337.4960156250001-8.79  338.76601562500014-10.35Q 340.0360156250001-11.91  340.0360156250001-13.96L 340.0360156250001-13.96Q 340.0360156250001-15.04  339.7460156250001-16.02Q 339.45601562500013-16.99  338.9160156250001-17.99Q 338.3760156250001-18.99  337.5960156250001-20.02Q 336.8160156250001-21.04  335.83601562500013-22.27L 335.83601562500013-22.27L 326.8060156250001-32.91Q 325.0460156250001-35.11  323.4160156250001-37.38Q 321.7760156250001-39.65  320.5360156250001-42.07Q 319.2860156250001-44.48  318.5260156250001-47.12Q 317.7760156250001-49.76  317.7760156250001-52.69L 317.7760156250001-52.69Q 317.7760156250001-56.59  319.1160156250001-59.47Q 320.45601562500013-62.35  322.7260156250001-64.26Q 324.9960156250001-66.16  327.9760156250001-67.09Q 330.95601562500013-68.02  334.2760156250001-68.02L 334.2760156250001-68.02Q 337.9360156250001-68.02  340.8660156250001-67.14Q 343.7960156250001-66.26  345.89601562500013-64.5Q 347.9960156250001-62.74  349.1260156250001-60.13Q 350.2460156250001-57.52  350.2460156250001-54.05L 350.2460156250001-54.05Q 350.2460156250001-51.71  349.8260156250001-49.51Q 349.4160156250001-47.31  349.0260156250001-45.75L 349.0260156250001-45.75L 340.4760156250001-45.75Q 340.4260156250001-49.07  340.1860156250001-51.56Q 339.9460156250001-54.05  339.2860156250001-55.69Q 338.6260156250001-57.32  337.4760156250001-58.15Q 336.32601562500014-58.98  334.4760156250001-58.98L 334.4760156250001-58.98Q 332.8660156250001-58.98  331.7860156250001-58.47Q 330.7160156250001-57.96  330.0560156250001-57.13Q 329.39601562500013-56.3  329.1260156250001-55.27Q 328.8560156250001-54.25  328.8560156250001-53.17L 328.8560156250001-53.17Q 328.8560156250001-50.83  329.9760156250001-48.83Q 331.1060156250001-46.83  332.95601562500013-44.48L 332.95601562500013-44.48L 342.82601562500014-32.91Q 343.89601562500013-31.59  345.3160156250001-29.71Q 346.7260156250001-27.83  347.9960156250001-25.56Q 349.26601562500014-23.29  350.14601562500013-20.61Q 351.0260156250001-17.92  351.0260156250001-14.99L 351.0260156250001-14.99Q 351.0260156250001-11.43  349.9060156250001-8.52Q 348.7760156250001-5.62  346.58601562500013-3.56Q 344.38601562500014-1.51  341.1860156250001-0.39Q 337.9860156250001 0.73  333.88601562500014 0.73L 333.88601562500014 0.73Q 330.51601562500014 0.73  327.5360156250001-0.02Q 324.5560156250001-0.78  322.3660156250001-2.51Q 320.1660156250001-4.25  318.89601562500013-7.08Q 317.6260156250001-9.91  317.6260156250001-14.06ZM 382.9112500000001 0L 382.9112500000001-83.4L 399.4112500000001-83.4L 407.4212500000001-51.12Q 408.6912500000001-45.75  409.4212500000001-40.89Q 410.1612500000001-36.04  410.8412500000001-31.74L 410.8412500000001-31.74L 411.2312500000001-31.74Q 411.9112500000001-36.04  412.6512500000001-40.89Q 413.38125000000014-45.75  414.6512500000001-51.12L 414.6512500000001-51.12L 422.9012500000001-83.4L 439.0612500000001-83.4L 439.0612500000001 0L 427.2412500000001 0L 427.2412500000001-27.59Q 427.2412500000001-33.94  427.37125000000015-39.79Q 427.4912500000001-45.65  427.6812500000001-50.56Q 427.88125000000014-55.47  428.12125000000015-59.23Q 428.37125000000015-62.99  428.5612500000001-65.19L 428.5612500000001-65.19L 427.6412500000001-65.19L 415.0412500000001-10.74L 407.0312500000001-10.74L 394.3312500000001-65.19L 393.4112500000001-65.19Q 393.6012500000001-62.99  393.8512500000001-59.23Q 394.0912500000001-55.47  394.2912500000001-50.56Q 394.4812500000001-45.65  394.6012500000001-39.79Q 394.7312500000001-33.94  394.7312500000001-27.59L 394.7312500000001-27.59L 394.7312500000001 0L 382.9112500000001 0ZM 461.8214062500001 0.73L 461.8214062500001 0.73Q 458.6914062500001 0.73  456.2714062500001-0.51Q 453.86140625000013-1.76  452.2014062500001-3.91Q 450.54140625000014-6.05  449.6814062500001-9.01Q 448.8314062500001-11.96  448.8314062500001-15.43L 448.8314062500001-15.43Q 448.8314062500001-19.58  449.85140625000014-22.8Q 450.8814062500001-26.03  452.86140625000013-28.61Q 454.8314062500001-31.2  457.7614062500001-33.33Q 460.6914062500001-35.45  464.5514062500001-37.35L 464.5514062500001-37.35Q 466.4014062500001-38.28  468.7214062500001-39.23Q 471.04140625000014-40.19  472.85140625000014-40.87L 472.85140625000014-40.87L 472.85140625000014-49.76Q 472.85140625000014-51.71  472.7014062500001-53.39Q 472.5614062500001-55.08  472.0014062500001-56.32Q 471.4314062500001-57.57  470.3114062500001-58.28Q 469.1914062500001-58.98  467.23140625000013-58.98L 467.23140625000013-58.98Q 465.92140625000013-58.98  464.67140625000013-58.5Q 463.4314062500001-58.01  462.4714062500001-56.84Q 461.5214062500001-55.66  460.9614062500001-53.71Q 460.4014062500001-51.76  460.4014062500001-48.88L 460.4014062500001-48.88L 460.4014062500001-45.95L 450.98140625000013-45.95Q 450.54140625000014-47.85  450.3214062500001-49.44Q 450.10140625000014-51.03  450.10140625000014-52.59L 450.10140625000014-52.59Q 450.10140625000014-56.35  451.3914062500001-59.23Q 452.6814062500001-62.11  455.0014062500001-64.06Q 457.3214062500001-66.02  460.5514062500001-67.02Q 463.7714062500001-68.02  467.6314062500001-68.02L 467.6314062500001-68.02Q 472.6514062500001-68.02  475.98140625000013-66.92Q 479.3014062500001-65.82  481.2714062500001-63.62Q 483.2514062500001-61.43  484.0614062500001-58.11Q 484.86140625000013-54.79  484.86140625000013-50.34L 484.86140625000013-50.34L 484.86140625000013 0L 475.6814062500001 0L 474.8014062500001-5.76Q 472.8014062500001-2.88  469.4614062500001-1.07Q 466.11140625000013 0.73  461.8214062500001 0.73ZM 467.2814062500001-8.79L 467.2814062500001-8.79Q 468.85140625000014-8.79  470.3414062500001-9.59Q 471.8214062500001-10.4  472.85140625000014-11.57L 472.85140625000014-11.57L 472.85140625000014-32.62Q 471.8714062500001-32.23  470.6514062500001-31.69Q 469.4314062500001-31.15  468.0214062500001-30.27L 468.0214062500001-30.27Q 466.7014062500001-29.44  465.4314062500001-28.27Q 464.16140625000014-27.1  463.16140625000014-25.49Q 462.16140625000014-23.88  461.5514062500001-21.85Q 460.9414062500001-19.82  460.9414062500001-17.33L 460.9414062500001-17.33Q 460.9414062500001-13.48  462.4514062500001-11.13Q 463.9614062500001-8.79  467.2814062500001-8.79ZM 497.6585937500002 0L 497.6585937500002-67.24L 506.68859375000017-67.24L 507.76859375000015-60.4Q 509.81859375000016-64.21  512.4785937500002-66.11Q 515.1385937500002-68.02  517.9185937500001-68.02L 517.9185937500001-68.02Q 523.2385937500002-68.02  525.7785937500001-64.75Q 528.3185937500002-61.47  528.3185937500002-54.93L 528.3185937500002-54.93Q 528.3185937500002-54.1  528.1985937500002-52.95Q 528.0785937500002-51.81  527.8585937500002-50.56Q 527.6385937500002-49.32  527.3185937500002-48.07Q 526.9985937500002-46.83  526.6585937500001-45.8L 526.6585937500001-45.8L 518.0685937500002-45.8L 518.0685937500002-52.05Q 518.0685937500002-54.1  517.7985937500001-55.42Q 517.5285937500001-56.74  517.0885937500002-57.54Q 516.6485937500001-58.35  516.0685937500002-58.67Q 515.4785937500002-58.98  514.7985937500001-58.98L 514.7985937500001-58.98Q 513.3285937500002-58.98  512.0885937500002-58.03Q 510.8385937500002-57.08  510.00859375000016-55.37L 510.00859375000016-55.37L 510.00859375000016 0L 497.6585937500002 0ZM 536.3251562500002 0L 536.3251562500002-88.82L 548.6851562500002-88.82L 548.6851562500002-37.7L 549.0751562500002-37.7L 562.5451562500002-67.24L 574.4151562500002-67.24L 559.4751562500003-36.47L 575.8251562500002 0L 563.2351562500003 0L 549.0751562500002-33.35L 548.6851562500002-33.35L 548.6851562500002 0L 536.3251562500002 0ZM 598.3412500000002 0.73L 598.3412500000002 0.73Q 593.9912500000003 0.73  590.6512500000002-0.88Q 587.3012500000002-2.49  585.0112500000002-5.91Q 582.7112500000002-9.33  581.5412500000002-14.67Q 580.3712500000003-20.02  580.3712500000003-27.54L 580.3712500000003-27.54L 580.3712500000003-40.23Q 580.3712500000003-46.63  581.3212500000002-51.2Q 582.2712500000002-55.76  583.8112500000002-58.86Q 585.3512500000003-61.96  587.3812500000003-63.77Q 589.4012500000002-65.58  591.5512500000002-66.53Q 593.7012500000002-67.48  595.8212500000002-67.75Q 597.9512500000002-68.02  599.7512500000003-68.02L 599.7512500000003-68.02Q 603.0712500000002-68.02  606.1512500000002-67.02Q 609.2312500000003-66.02  611.5712500000002-63.6Q 613.9112500000002-61.18  615.3112500000002-57.13Q 616.7012500000002-53.08  616.7012500000002-47.02L 616.7012500000002-47.02Q 616.7012500000002-44.97  616.5812500000002-42.87Q 616.4512500000002-40.77  616.2612500000002-38.75Q 616.0612500000002-36.72  615.7512500000003-34.81Q 615.4312500000002-32.91  615.0912500000002-31.3L 615.0912500000002-31.3L 592.7712500000002-31.3L 592.7712500000002-24.46Q 592.7712500000002-20.07  593.1112500000003-17.07Q 593.4612500000002-14.06  594.2612500000002-12.23Q 595.0712500000002-10.4  596.4612500000002-9.59Q 597.8512500000003-8.79  599.9512500000002-8.79L 599.9512500000002-8.79Q 601.0712500000002-8.79  602.1512500000002-9.25Q 603.2212500000003-9.72  604.0312500000002-10.79Q 604.8312500000002-11.87  605.3212500000002-13.65Q 605.8112500000002-15.43  605.8112500000002-18.07L 605.8112500000002-18.07L 605.8112500000002-20.17L 616.1112500000003-20.17L 616.1112500000003-17.58Q 616.1112500000003-8.01  611.5512500000002-3.64Q 606.9812500000003 0.73  598.3412500000002 0.73ZM 592.7712500000002-39.6L 605.1712500000002-39.6Q 605.2212500000003-40.14  605.2712500000002-41.04Q 605.3212500000002-41.94  605.3512500000003-42.92Q 605.3712500000003-43.9  605.3712500000003-44.85Q 605.3712500000003-45.8  605.3712500000003-46.48L 605.3712500000003-46.48Q 605.3712500000003-53.13  603.8112500000002-56.05Q 602.2412500000003-58.98  599.1712500000002-58.98L 599.1712500000002-58.98Q 597.5612500000002-58.98  596.3412500000002-58.23Q 595.1212500000003-57.47  594.3312500000002-55.69Q 593.5512500000002-53.91  593.1612500000002-50.98Q 592.7712500000002-48.05  592.7712500000002-43.7L 592.7712500000002-43.7L 592.7712500000002-39.6ZM 628.5607812500003-16.75L 628.5607812500003-58.45L 623.3407812500003-58.45L 623.3407812500003-67.24L 629.6407812500004-67.24L 632.1307812500004-84.67L 640.9207812500003-84.67L 640.9207812500003-67.24L 651.6607812500004-67.24L 651.6607812500004-58.45L 640.9207812500003-58.45L 640.9207812500003-15.67Q 640.9207812500003-13.48  641.3307812500003-12.13Q 641.7507812500004-10.79  642.4807812500003-10.03Q 643.2107812500003-9.28  644.1907812500003-9.03Q 645.1707812500003-8.79  646.2407812500004-8.79L 646.2407812500004-8.79Q 648.0507812500003-8.79  649.4407812500003-9.23Q 650.8307812500003-9.67  652.1007812500003-10.45L 652.1007812500003-10.45L 652.1007812500003-3.61Q 651.0207812500004-2.29  649.7807812500004-1.46Q 648.5307812500004-0.63  647.2207812500003-0.12Q 645.9007812500004 0.39  644.5307812500004 0.59Q 643.1607812500004 0.78  641.8407812500003 0.78L 641.8407812500003 0.78Q 639.2607812500004 0.78  636.8607812500003 0.1Q 634.4707812500003-0.59  632.6207812500004-2.51Q 630.7607812500004-4.44  629.6607812500004-7.86Q 628.5607812500003-11.28  628.5607812500003-16.75L 628.5607812500003-16.75ZM 657.4697656250004-14.06L 657.4697656250004-14.06Q 657.4697656250004-16.26  657.8897656250003-18.31Q 658.2997656250003-20.36  658.6897656250003-21.58L 658.6897656250003-21.58L 667.3797656250003-21.58Q 667.3797656250003-17.92  667.7497656250004-15.45Q 668.1197656250004-12.99  668.9497656250004-11.52Q 669.7797656250003-10.06  671.1697656250003-9.42Q 672.5597656250003-8.79  674.5597656250003-8.79L 674.5597656250003-8.79Q 677.3397656250004-8.79  678.6097656250004-10.35Q 679.8797656250003-11.91  679.8797656250003-13.96L 679.8797656250003-13.96Q 679.8797656250003-15.04  679.5897656250004-16.02Q 679.2997656250003-16.99  678.7597656250003-17.99Q 678.2197656250004-18.99  677.4397656250003-20.02Q 676.6597656250003-21.04  675.6797656250003-22.27L 675.6797656250003-22.27L 666.6497656250003-32.91Q 664.8897656250003-35.11  663.2597656250003-37.38Q 661.6197656250004-39.65  660.3797656250003-42.07Q 659.1297656250003-44.48  658.3697656250004-47.12Q 657.6197656250004-49.76  657.6197656250004-52.69L 657.6197656250004-52.69Q 657.6197656250004-56.59  658.9597656250004-59.47Q 660.2997656250003-62.35  662.5697656250003-64.26Q 664.8397656250004-66.16  667.8197656250003-67.09Q 670.7997656250003-68.02  674.1197656250004-68.02L 674.1197656250004-68.02Q 677.7797656250003-68.02  680.7097656250004-67.14Q 683.6397656250003-66.26  685.7397656250004-64.5Q 687.8397656250004-62.74  688.9697656250004-60.13Q 690.0897656250004-57.52  690.0897656250004-54.05L 690.0897656250004-54.05Q 690.0897656250004-51.71  689.6697656250003-49.51Q 689.2597656250003-47.31  688.8697656250004-45.75L 688.8697656250004-45.75L 680.3197656250003-45.75Q 680.2697656250003-49.07  680.0297656250003-51.56Q 679.7897656250003-54.05  679.1297656250003-55.69Q 678.4697656250004-57.32  677.3197656250003-58.15Q 676.1697656250003-58.98  674.3197656250003-58.98L 674.3197656250003-58.98Q 672.7097656250004-58.98  671.6297656250003-58.47Q 670.5597656250003-57.96  669.8997656250003-57.13Q 669.2397656250004-56.3  668.9697656250004-55.27Q 668.6997656250004-54.25  668.6997656250004-53.17L 668.6997656250004-53.17Q 668.6997656250004-50.83  669.8197656250003-48.83Q 670.9497656250004-46.83  672.7997656250003-44.48L 672.7997656250003-44.48L 682.6697656250003-32.91Q 683.7397656250004-31.59  685.1597656250003-29.71Q 686.5697656250004-27.83  687.8397656250004-25.56Q 689.1097656250004-23.29  689.9897656250004-20.61Q 690.8697656250004-17.92  690.8697656250004-14.99L 690.8697656250004-14.99Q 690.8697656250004-11.43  689.7497656250004-8.52Q 688.6197656250004-5.62  686.4297656250003-3.56Q 684.2297656250004-1.51  681.0297656250003-0.39Q 677.8297656250004 0.73  673.7297656250004 0.73L 673.7297656250004 0.73Q 670.3597656250004 0.73  667.3797656250003-0.02Q 664.3997656250003-0.78  662.2097656250004-2.51Q 660.0097656250003-4.25  658.7397656250004-7.08Q 657.4697656250004-9.91  657.4697656250004-14.06Z" data-textpath="Farmer's Markets" data-text-anchor="middle" data-font-size="100" data-letterspacing="0" data-side="left" data-offset="0.5" data-dx="0" data-dy="0" data-xmlspace="preserve" data-href="" data-font="Fjalla One" data-font-src="/Content/clientfonts/fjallaone.woff" data-font-scale="contain" transform="translate(0,0)" data-x="0" data-y="0" fill="url('#linearGradientSk7ewrgut2d')"></path>
        </g>
      </svg>
    </g>
  </g>
</svg>