<?xml version="1.0" encoding="UTF-8"?>
<!DOCTYPE svg PUBLIC "-//W3C//DTD SVG 1.1//EN" "http://www.w3.org/Graphics/SVG/1.1/DTD/svg11.dtd">
<svg xmlns="http://www.w3.org/2000/svg" version="1.1" width="944px" height="296px" style="shape-rendering:geometricPrecision; text-rendering:geometricPrecision; image-rendering:optimizeQuality; fill-rule:evenodd; clip-rule:evenodd" xmlns:xlink="http://www.w3.org/1999/xlink">
<g><path style="opacity:0.975" fill="#3d4954" d="M 116.5,42.5 C 175.712,39.5 215.879,65.5 237,120.5C 248.906,166.392 237.74,205.558 203.5,238C 168.799,265.531 130.465,271.865 88.5,257C 38.7226,233.3 15.8893,193.8 20,138.5C 27.563,95.6099 51.3964,65.7766 91.5,49C 99.8425,46.3323 108.176,44.1657 116.5,42.5 Z M 149.5,103.5 C 152.37,85.2359 146.37,70.5692 131.5,59.5C 116.291,70.9752 110.458,85.9752 114,104.5C 111.34,103.166 108.506,102.332 105.5,102C 99.8431,101.501 94.1764,101.334 88.5,101.5C 87.136,113.35 89.4693,124.35 95.5,134.5C 93.2287,135.363 90.8954,135.363 88.5,134.5C 88.1526,142.936 88.8193,151.269 90.5,159.5C 70.5,159.5 50.5,159.5 30.5,159.5C 31.8744,105.308 58.5411,70.8081 110.5,56C 156.573,49.2912 192.073,65.4578 217,104.5C 226.584,121.586 230.751,139.919 229.5,159.5C 210.5,159.5 191.5,159.5 172.5,159.5C 174.181,151.268 174.847,142.934 174.5,134.5C 172.105,135.363 169.771,135.363 167.5,134.5C 173.774,124.396 176.107,113.396 174.5,101.5C 166.066,101.153 157.732,101.819 149.5,103.5 Z"/></g>
<g><path style="opacity:0.918" fill="#3d4953" d="M 349.5,48.5 C 356.067,47.0971 359.733,49.5971 360.5,56C 360.483,61.0178 357.983,63.8511 353,64.5C 346.575,62.9924 344.242,58.9924 346,52.5C 346.69,50.6498 347.856,49.3164 349.5,48.5 Z"/></g>
<g><path style="opacity:0.946" fill="#3d4954" d="M 300.5,52.5 C 304.5,52.5 308.5,52.5 312.5,52.5C 312.334,60.1739 312.5,67.8406 313,75.5C 318.31,71.2842 324.143,70.4509 330.5,73C 332.049,74.214 333.215,75.714 334,77.5C 335.45,96.7787 335.95,116.112 335.5,135.5C 331.167,135.5 326.833,135.5 322.5,135.5C 322.667,117.83 322.5,100.164 322,82.5C 318.515,80.0376 315.515,80.7043 313,84.5C 312.5,101.497 312.333,118.497 312.5,135.5C 308.5,135.5 304.5,135.5 300.5,135.5C 300.5,107.833 300.5,80.1667 300.5,52.5 Z"/></g>
<g><path style="opacity:0.95" fill="#3c4954" d="M 370.5,52.5 C 374.5,52.5 378.5,52.5 382.5,52.5C 382.5,80.1667 382.5,107.833 382.5,135.5C 378.5,135.5 374.5,135.5 370.5,135.5C 370.5,107.833 370.5,80.1667 370.5,52.5 Z"/></g>
<g><path style="opacity:0.936" fill="#3c4953" d="M 393.5,52.5 C 397.833,52.5 402.167,52.5 406.5,52.5C 406.5,80.1667 406.5,107.833 406.5,135.5C 402.167,135.5 397.833,135.5 393.5,135.5C 393.5,107.833 393.5,80.1667 393.5,52.5 Z"/></g>
<g><path style="opacity:0.961" fill="#3d4853" d="M 256.5,57.5 C 264.917,57.0943 273.251,57.5943 281.5,59C 287.259,61.6578 290.759,66.1578 292,72.5C 292.667,79.8333 292.667,87.1667 292,94.5C 289.273,107.122 281.439,112.788 268.5,111.5C 268.5,119.5 268.5,127.5 268.5,135.5C 264.5,135.5 260.5,135.5 256.5,135.5C 256.5,109.5 256.5,83.5 256.5,57.5 Z M 268.5,66.5 C 272.31,66.379 275.477,67.7124 278,70.5C 279.104,74.7201 279.604,79.0534 279.5,83.5C 279.843,89.0571 279.009,94.3904 277,99.5C 274.413,101.196 271.579,102.196 268.5,102.5C 268.5,90.5 268.5,78.5 268.5,66.5 Z"/></g>
<g><path style="opacity:0.948" fill="#3c4854" d="M 346.5,72.5 C 350.5,72.5 354.5,72.5 358.5,72.5C 358.5,93.5 358.5,114.5 358.5,135.5C 354.5,135.5 350.5,135.5 346.5,135.5C 346.5,114.5 346.5,93.5 346.5,72.5 Z"/></g>
<g><path style="opacity:0.936" fill="#3c4853" d="M 412.5,72.5 C 416.767,72.203 420.934,72.5363 425,73.5C 427.54,87.201 430.207,100.868 433,114.5C 434.72,100.794 436.72,87.1271 439,73.5C 443.066,72.5363 447.233,72.203 451.5,72.5C 446.804,97.3137 441.471,121.98 435.5,146.5C 431.191,154.829 424.524,157.496 415.5,154.5C 414.52,151.914 414.187,149.247 414.5,146.5C 422.084,147.082 426.084,143.582 426.5,136C 421.751,114.839 417.084,93.672 412.5,72.5 Z"/></g>
<g><path style="opacity:1" fill="#edc731" d="M 130.5,74.5 C 131.496,74.4142 132.329,74.7476 133,75.5C 142.028,88.2814 141.528,100.615 131.5,112.5C 121.295,100.057 120.961,87.3901 130.5,74.5 Z"/></g>
<g><path style="opacity:1" fill="#edc731" d="M 99.5,112.5 C 116.529,112.862 125.195,121.529 125.5,138.5C 109.194,137.527 100.527,128.86 99.5,112.5 Z"/></g>
<g><path style="opacity:0.999" fill="#edc731" d="M 155.5,112.5 C 158.167,112.5 160.833,112.5 163.5,112.5C 162.491,128.842 153.824,137.509 137.5,138.5C 137.607,125.73 143.607,117.063 155.5,112.5 Z"/></g>
<g><path style="opacity:1" fill="#ebc632" d="M 99.5,145.5 C 115.852,146.686 124.685,155.353 126,171.5C 108.927,171.596 100.093,162.93 99.5,145.5 Z"/></g>
<g><path style="opacity:1" fill="#ebc632" d="M 158.5,145.5 C 160.5,145.5 162.5,145.5 164.5,145.5C 163.237,162.433 154.237,171.1 137.5,171.5C 138.344,157.791 145.344,149.124 158.5,145.5 Z"/></g>
<g><path style="opacity:0.91" fill="#3c4853" d="M 532.5,156.5 C 536.5,156.5 540.5,156.5 544.5,156.5C 544.667,167.505 544.5,178.505 544,189.5C 540.606,190.456 537.106,190.789 533.5,190.5C 532.819,179.179 532.486,167.846 532.5,156.5 Z"/></g>
<g><path style="opacity:0.952" fill="#3c4854" d="M 769.5,159.5 C 773.833,159.5 778.167,159.5 782.5,159.5C 782.333,174.837 782.5,190.17 783,205.5C 786.667,197.5 790.333,189.5 794,181.5C 798.413,180.368 802.913,180.201 807.5,181C 802.29,190.42 797.623,200.086 793.5,210C 798.079,221.994 803.079,233.827 808.5,245.5C 803.95,246.8 799.45,246.8 795,245.5C 791,236.167 787,226.833 783,217.5C 782.5,227.161 782.334,236.828 782.5,246.5C 778.167,246.5 773.833,246.5 769.5,246.5C 769.5,217.5 769.5,188.5 769.5,159.5 Z"/></g>
<g><path style="opacity:0.927" fill="#3c4853" d="M 861.5,163.5 C 864.833,163.5 868.167,163.5 871.5,163.5C 871.5,169.167 871.5,174.833 871.5,180.5C 874.833,180.5 878.167,180.5 881.5,180.5C 881.5,183.5 881.5,186.5 881.5,189.5C 878.167,189.5 874.833,189.5 871.5,189.5C 871.333,204.17 871.5,218.837 872,233.5C 872.374,234.416 872.874,235.25 873.5,236C 876.531,236.495 879.531,236.329 882.5,235.5C 883.802,240.644 882.135,244.144 877.5,246C 867.549,248.782 861.382,245.282 859,235.5C 858.5,220.17 858.333,204.837 858.5,189.5C 856.833,189.5 855.167,189.5 853.5,189.5C 853.5,186.5 853.5,183.5 853.5,180.5C 855.5,180.5 857.5,180.5 859.5,180.5C 860.54,174.884 861.207,169.217 861.5,163.5 Z"/></g>
<g><path style="opacity:0.936" fill="#3d4954" d="M 256.5,164.5 C 267.167,164.5 277.833,164.5 288.5,164.5C 288.5,167.833 288.5,171.167 288.5,174.5C 282.167,174.5 275.833,174.5 269.5,174.5C 269.5,182.5 269.5,190.5 269.5,198.5C 274.5,198.5 279.5,198.5 284.5,198.5C 284.5,201.833 284.5,205.167 284.5,208.5C 279.5,208.5 274.5,208.5 269.5,208.5C 269.5,221.167 269.5,233.833 269.5,246.5C 265.167,246.5 260.833,246.5 256.5,246.5C 256.5,219.167 256.5,191.833 256.5,164.5 Z"/></g>
<g><path style="opacity:0.939" fill="#3d4953" d="M 620.5,164.5 C 626.206,164.171 631.872,164.505 637.5,165.5C 641.787,180.314 645.287,195.314 648,210.5C 651.503,195.487 655.17,180.487 659,165.5C 664.407,164.527 669.907,164.193 675.5,164.5C 675.5,191.833 675.5,219.167 675.5,246.5C 671.5,246.5 667.5,246.5 663.5,246.5C 663.452,226.48 663.618,206.48 664,186.5C 660.333,202.5 656.667,218.5 653,234.5C 649.943,235.451 646.777,235.784 643.5,235.5C 640.162,219.813 636.662,204.147 633,188.5C 632.919,207.83 633.086,227.164 633.5,246.5C 629.167,246.5 624.833,246.5 620.5,246.5C 620.5,219.167 620.5,191.833 620.5,164.5 Z"/></g>
<g><path style="opacity:1" fill="#43d480" d="M 73.5,171.5 C 76.1873,171.336 78.854,171.503 81.5,172C 73.5382,188.758 65.7048,205.591 58,222.5C 54.3104,218.311 50.8104,213.978 47.5,209.5C 56.1766,196.804 64.8433,184.138 73.5,171.5 Z"/></g>
<g><path style="opacity:1" fill="#43d480" d="M 180.5,171.5 C 183.448,171.223 186.281,171.556 189,172.5C 196.753,184.34 204.753,196.007 213,207.5C 213.667,208.5 213.667,209.5 213,210.5C 209.991,214.339 206.824,218.006 203.5,221.5C 195.443,204.988 187.776,188.321 180.5,171.5 Z"/></g>
<g><path style="opacity:1" fill="#43d580" d="M 202.5,172.5 C 210.984,171.507 219.651,171.174 228.5,171.5C 227.042,180.206 224.376,188.54 220.5,196.5C 214.491,188.47 208.491,180.47 202.5,172.5 Z"/></g>
<g><path style="opacity:1" fill="#43d480" d="M 32.5,171.5 C 41.5062,171.334 50.5062,171.5 59.5,172C 53.4557,180.588 47.289,189.088 41,197.5C 36.4617,189.385 33.6283,180.718 32.5,171.5 Z"/></g>
<g><path style="opacity:1" fill="#ecc631" d="M 99.5,179.5 C 116.167,180.833 125.167,189.833 126.5,206.5C 109.157,205.824 100.157,196.824 99.5,179.5 Z"/></g>
<g><path style="opacity:1" fill="#ebc632" d="M 157.5,179.5 C 159.5,179.5 161.5,179.5 163.5,179.5C 162.9,196.766 153.9,205.766 136.5,206.5C 137.538,192.716 144.538,183.716 157.5,179.5 Z"/></g>
<g><path style="opacity:0.94" fill="#3d4853" d="M 303.5,179.5 C 309.262,179.149 314.928,179.649 320.5,181C 322.917,182.663 324.75,184.829 326,187.5C 327.41,207.13 327.91,226.797 327.5,246.5C 324.102,246.82 320.768,246.487 317.5,245.5C 317,244.5 316.5,243.5 316,242.5C 308.296,248.148 300.962,247.815 294,241.5C 288.4,228.907 291.234,218.74 302.5,211C 306.288,209.022 310.121,207.189 314,205.5C 314.667,201.167 314.667,196.833 314,192.5C 311.472,188.915 308.472,188.582 305,191.5C 303.684,194.688 303.184,198.022 303.5,201.5C 300.15,201.665 296.817,201.498 293.5,201C 290.53,190.778 293.863,183.612 303.5,179.5 Z M 312.5,215.5 C 313.818,218.258 314.485,221.424 314.5,225C 314.333,228.167 314.167,231.333 314,234.5C 307.964,237.898 304.464,236.064 303.5,229C 304.385,222.972 307.385,218.472 312.5,215.5 Z"/></g>
<g><path style="opacity:0.917" fill="#3c4853" d="M 354.5,179.5 C 362.576,177.609 367.41,180.609 369,188.5C 369.518,192.551 369.184,196.551 368,200.5C 364.943,201.451 361.777,201.784 358.5,201.5C 358.605,197.452 358.272,193.452 357.5,189.5C 355.278,189.178 353.444,189.845 352,191.5C 351.5,209.83 351.333,228.164 351.5,246.5C 347.167,246.5 342.833,246.5 338.5,246.5C 338.5,224.5 338.5,202.5 338.5,180.5C 341.833,180.5 345.167,180.5 348.5,180.5C 348.238,181.978 348.571,183.311 349.5,184.5C 351.006,182.599 352.673,180.932 354.5,179.5 Z"/></g>
<g><path style="opacity:0.929" fill="#3d4854" d="M 394.5,179.5 C 401.421,178.043 406.921,180.043 411,185.5C 415.618,179.947 421.451,178.114 428.5,180C 433.383,182.264 435.883,186.098 436,191.5C 436.5,209.83 436.667,228.164 436.5,246.5C 432.167,246.5 427.833,246.5 423.5,246.5C 423.667,228.497 423.5,210.497 423,192.5C 419.841,188.564 416.508,188.564 413,192.5C 412.5,210.497 412.333,228.497 412.5,246.5C 408.167,246.5 403.833,246.5 399.5,246.5C 399.667,228.497 399.5,210.497 399,192.5C 395.841,188.564 392.508,188.564 389,192.5C 388.5,210.497 388.333,228.497 388.5,246.5C 384.167,246.5 379.833,246.5 375.5,246.5C 375.5,224.5 375.5,202.5 375.5,180.5C 379.167,180.5 382.833,180.5 386.5,180.5C 386.34,182.199 386.506,183.866 387,185.5C 389.114,182.879 391.614,180.879 394.5,179.5 Z"/></g>
<g><path style="opacity:0.943" fill="#3d4853" d="M 458.5,179.5 C 474.579,177.244 482.579,184.244 482.5,200.5C 482.159,205.231 481.492,209.898 480.5,214.5C 473.197,215.497 465.863,215.831 458.5,215.5C 458.867,221.172 459.367,226.839 460,232.5C 462.195,236.872 465.195,237.539 469,234.5C 470.289,231.649 470.789,228.649 470.5,225.5C 474.167,225.5 477.833,225.5 481.5,225.5C 482.352,242.473 474.352,249.306 457.5,246C 451.455,243.099 447.955,238.265 447,231.5C 445.095,219.496 445.095,207.496 447,195.5C 447.985,188.03 451.818,182.696 458.5,179.5 Z M 462.5,189.5 C 465.547,188.855 467.713,189.855 469,192.5C 470.225,197.085 470.725,201.752 470.5,206.5C 466.5,206.5 462.5,206.5 458.5,206.5C 459.035,202.181 459.535,197.848 460,193.5C 460.662,192.016 461.496,190.683 462.5,189.5 Z"/></g>
<g><path style="opacity:0.921" fill="#3d4853" d="M 507.5,179.5 C 511.308,179.163 514.974,179.663 518.5,181C 522.294,187.243 522.961,193.743 520.5,200.5C 517.572,201.484 514.572,201.817 511.5,201.5C 511.737,197.727 511.237,194.06 510,190.5C 508.062,189.14 506.396,189.473 505,191.5C 504.5,209.83 504.333,228.164 504.5,246.5C 500.167,246.5 495.833,246.5 491.5,246.5C 491.5,224.5 491.5,202.5 491.5,180.5C 494.833,180.5 498.167,180.5 501.5,180.5C 501.34,182.199 501.506,183.866 502,185.5C 503.36,182.977 505.193,180.977 507.5,179.5 Z"/></g>
<g><path style="opacity:0.935" fill="#3c4853" d="M 567.5,179.5 C 584.508,176.676 591.675,183.676 589,200.5C 585.943,201.451 582.777,201.784 579.5,201.5C 580.013,197.21 579.013,193.377 576.5,190C 570.498,189.007 568.332,191.507 570,197.5C 574.289,203.458 578.956,209.124 584,214.5C 590.429,221.894 592.095,230.227 589,239.5C 582.936,246.182 575.436,248.349 566.5,246C 558.276,242.029 555.442,235.529 558,226.5C 560.804,224.656 563.97,223.989 567.5,224.5C 567.522,228.885 568.855,232.718 571.5,236C 575.833,237.489 578.167,235.989 578.5,231.5C 578.378,229.209 577.545,227.209 576,225.5C 568.41,217.914 562.41,209.248 558,199.5C 556.095,190.313 559.262,183.646 567.5,179.5 Z"/></g>
<g><path style="opacity:0.921" fill="#3c4853" d="M 696.5,179.5 C 702.262,179.149 707.928,179.649 713.5,181C 716.381,182.251 718.214,184.417 719,187.5C 720.451,207.112 720.951,226.779 720.5,246.5C 717.167,246.5 713.833,246.5 710.5,246.5C 710.762,245.022 710.429,243.689 709.5,242.5C 701.627,248.159 694.127,247.826 687,241.5C 681.527,228.93 684.36,218.763 695.5,211C 699.288,209.022 703.121,207.189 707,205.5C 707.667,200.833 707.667,196.167 707,191.5C 702.56,187.75 699.227,188.75 697,194.5C 696.503,196.81 696.337,199.143 696.5,201.5C 693.167,201.5 689.833,201.5 686.5,201.5C 683.515,191.072 686.848,183.739 696.5,179.5 Z M 705.5,215.5 C 706.818,218.258 707.485,221.424 707.5,225C 707.333,228.167 707.167,231.333 707,234.5C 703.706,237.311 700.706,236.978 698,233.5C 696.14,225.557 698.64,219.557 705.5,215.5 Z"/></g>
<g><path style="opacity:0.911" fill="#3c4854" d="M 748.5,179.5 C 758.264,178.262 762.931,182.596 762.5,192.5C 762.232,195.517 761.898,198.517 761.5,201.5C 758.167,201.5 754.833,201.5 751.5,201.5C 751.759,197.76 751.426,194.094 750.5,190.5C 748.389,189.152 746.555,189.485 745,191.5C 744.5,209.83 744.333,228.164 744.5,246.5C 740.167,246.5 735.833,246.5 731.5,246.5C 731.5,224.5 731.5,202.5 731.5,180.5C 734.833,180.5 738.167,180.5 741.5,180.5C 741.312,182.103 741.812,183.437 743,184.5C 744.73,182.598 746.563,180.931 748.5,179.5 Z"/></g>
<g><path style="opacity:0.937" fill="#3c4853" d="M 824.5,179.5 C 840.333,177.166 848.333,183.999 848.5,200C 847.996,204.876 847.33,209.71 846.5,214.5C 839.197,215.497 831.863,215.831 824.5,215.5C 824.471,221.21 824.971,226.877 826,232.5C 828.195,236.872 831.195,237.539 835,234.5C 836.289,231.649 836.789,228.649 836.5,225.5C 840.167,225.5 843.833,225.5 847.5,225.5C 848.341,242.484 840.341,249.318 823.5,246C 817.455,243.099 813.955,238.265 813,231.5C 811.589,221.87 811.256,212.203 812,202.5C 811.59,192.146 815.757,184.479 824.5,179.5 Z M 827.5,189.5 C 829.792,189.244 831.959,189.577 834,190.5C 835.961,195.639 836.794,200.972 836.5,206.5C 832.5,206.5 828.5,206.5 824.5,206.5C 824.668,200.649 825.668,194.983 827.5,189.5 Z"/></g>
<g><path style="opacity:0.934" fill="#3c4853" d="M 897.5,179.5 C 914.823,177.154 921.823,184.488 918.5,201.5C 915.167,201.5 911.833,201.5 908.5,201.5C 908.85,197.454 908.183,193.62 906.5,190C 900.507,188.332 898.007,190.498 899,196.5C 903.238,203.408 908.238,209.741 914,215.5C 920.032,223.587 921.032,232.253 917,241.5C 914.742,243.43 912.242,244.93 909.5,246C 891.679,249.345 884.346,242.178 887.5,224.5C 890.833,224.5 894.167,224.5 897.5,224.5C 896.846,228.839 897.846,232.673 900.5,236C 908.298,236.585 910.131,233.419 906,226.5C 900.623,220.792 895.623,214.792 891,208.5C 886.089,201.145 885.423,193.478 889,185.5C 891.322,182.605 894.155,180.605 897.5,179.5 Z"/></g>
<g><path style="opacity:1" fill="#43d580" d="M 88.5,183.5 C 90.4583,190.188 93.1249,196.688 96.5,203C 93.5555,216.611 90.2221,230.111 86.5,243.5C 79.32,240.306 72.9866,235.972 67.5,230.5C 74.7864,214.93 81.7864,199.263 88.5,183.5 Z"/></g>
<g><path style="opacity:1" fill="#43d580" d="M 173.5,186.5 C 180.869,200.741 187.869,215.241 194.5,230C 188.701,235.648 182.034,239.814 174.5,242.5C 172.054,229.548 169.054,216.715 165.5,204C 168.836,198.502 171.502,192.668 173.5,186.5 Z"/></g>
<g><path style="opacity:1" fill="#43d380" d="M 106.5,211.5 C 112.453,214.595 118.786,216.262 125.5,216.5C 125.5,228.833 125.5,241.167 125.5,253.5C 116.327,253.37 107.494,251.704 99,248.5C 100.408,235.961 102.908,223.628 106.5,211.5 Z"/></g>
<g><path style="opacity:1" fill="#43d681" d="M 142.5,252.5 C 140.833,252.5 139.167,252.5 137.5,252.5C 137.5,240.5 137.5,228.5 137.5,216.5C 143.795,216.37 149.628,214.703 155,211.5C 158.561,223.68 161.395,236.014 163.5,248.5C 156.588,250.311 149.588,251.645 142.5,252.5 Z"/></g>
<g><path style="opacity:1" fill="#419f6f" d="M 137.5,216.5 C 137.5,228.5 137.5,240.5 137.5,252.5C 139.167,252.5 140.833,252.5 142.5,252.5C 140.735,253.461 138.735,253.795 136.5,253.5C 136.171,240.989 136.505,228.655 137.5,216.5 Z"/></g>
</svg>
